<?xml version="1.0" encoding="utf-8"?>
<!-- Generator: Adobe Illustrator 25.0.0, SVG Export Plug-In . SVG Version: 6.00 Build 0)  -->
<svg version="1.1" id="Layer_1" xmlns="http://www.w3.org/2000/svg" xmlns:xlink="http://www.w3.org/1999/xlink" x="0px" y="0px"
	 viewBox="0 0 650 142.2" style="enable-background:new 0 0 650 142.2;" xml:space="preserve">
<style type="text/css">
	.st0{enable-background:new    ;}
	.st1{fill:#624744;}
</style>
<g class="st0">
	<path class="st1" d="M32.2,62.1h15l2.5-3.1l4.1,3.5c0.5,0.4,0.7,0.7,0.7,0.9c0,0.2-0.2,0.5-0.7,0.8l-1.8,1.2v9.7
		c0,1.3,0,2.6,0.1,3.7l0.2,2.8c0,0.7-0.6,1.4-1.9,2c-1.3,0.7-2.1,1-2.5,1c-0.4,0-0.6-0.3-0.6-0.8v-3.6H32.2v10.3c0,4,0,6.8,0.1,8.5
		c0.1,1.7,0.1,2.6,0.1,2.7c0,0.8-0.7,1.5-2.1,2.2c-1.4,0.7-2.3,1-2.6,1c-0.3,0-0.5-0.4-0.5-1.2l0.3-6.1c0.1-2.7,0.2-5.5,0.2-8.5
		v-8.9H12.7v2.2c0,0.5-0.1,1-0.4,1.3c-0.3,0.3-0.9,0.7-1.8,1.1c-1,0.4-1.6,0.6-2,0.6c-0.4,0-0.6-0.2-0.7-0.5c-0.1-0.3-0.1-0.8,0-1.6
		c0.4-3.3,0.5-6.5,0.5-9.5v-7.6c0-2.7-0.1-5.1-0.2-7.4l4.9,3.2h14.6v-4.4c0-3.9-0.1-7.2-0.2-10l6.7,2.8c0.6,0.2,1,0.5,1,0.7
		c0,0.2-0.3,0.5-1,0.9l-1.9,1.2V62.1z M27.6,63.8H12.7v14.7h14.9V63.8z M47.4,78.6V63.8H32.2v14.7H47.4z"/>
	<path class="st1" d="M139,56.4c0.6,0.7,0.5,1-0.4,1h-16.4c0,0.7,0,1.2,0.1,1.6c0,0.4,0.1,0.7,0.1,1.2c0,0.4-0.1,0.7-0.3,0.9
		c-0.2,0.2-1,0.7-2.3,1.3c-0.8,0.4-1.3,0.4-1.5,0.2c-0.2-0.2-0.3-0.8-0.2-1.7c0.1-0.7,0.1-1.3,0.2-1.8c0-0.5,0-1,0-1.6h-12.5
		c0,1.1,0.1,2.1,0.2,3.3c0,0.2,0.1,0.3,0,0.4c0,0.1-0.1,0.2-0.3,0.4c-0.2,0.1-0.4,0.3-0.8,0.5c-0.3,0.2-0.8,0.4-1.5,0.7
		c-0.8,0.4-1.3,0.5-1.5,0.3c-0.2-0.2-0.3-0.7-0.2-1.6c0.1-0.7,0.1-1.4,0.2-2c0-0.6,0.1-1.3,0.1-1.9H91c-0.6,0-1.2,0.1-1.9,0.2
		s-1.4,0.3-1.9,0.5l-2.1-2.6c0.9,0.1,1.7,0.2,2.5,0.2c0.7,0,1.5,0.1,2.3,0.1H102v-2.7c0-0.8,0-1.6-0.1-2.5c0-0.8-0.1-1.8-0.2-2.8
		l5.1,1.9c0.4,0.2,0.7,0.4,0.7,0.6s-0.2,0.5-0.5,0.7l-1.2,0.7v4.1h12.5v-3c0-0.8,0-1.6,0-2.2c0-0.7-0.1-1.6-0.2-2.6l4.8,1.6
		c0.6,0.2,0.9,0.4,0.9,0.6c0,0.2-0.2,0.4-0.6,0.6l-0.9,0.5v4.4h9.3l3.4-4.4L139,56.4z M133.5,91.6c0.6,0.7,0.5,1.1-0.4,1.1h-19
		c0,1,0,1.8,0,2.5c0,0.7,0,1.3,0,1.9c0,0.6,0,1.1,0.1,1.7c0,0.5,0.1,1.2,0.1,1.9c0,0.5-0.1,0.9-0.3,1.2c-0.2,0.3-0.8,0.8-1.8,1.4
		c-1.2,0.7-1.9,1-2.3,0.8c-0.3-0.2-0.5-1-0.3-2.3c0.2-1.2,0.3-2.6,0.3-4.2c0.1-1.6,0.1-3.2,0.2-4.8H97.1c-0.6,0-1.2,0.1-1.9,0.2
		c-0.7,0.1-1.4,0.3-1.9,0.5l-2.1-2.7c0.9,0.1,1.7,0.2,2.5,0.2c0.7,0,1.5,0.1,2.3,0.1H110v-6.5H94.3c-0.6,0-1.2,0.1-1.9,0.2
		c-0.7,0.1-1.4,0.3-1.9,0.5l-2.1-2.6c0.9,0.1,1.7,0.2,2.5,0.2c0.7,0,1.5,0.1,2.3,0.1h5v-8.2h-7.1c-0.6,0-1.3,0.1-2,0.2
		c-0.7,0.1-1.4,0.3-1.9,0.5l-2.1-2.7c0.9,0.2,1.7,0.3,2.5,0.3c0.7,0,1.5,0.1,2.3,0.1h8.3v-7.4h-2.6c-0.6,0-1.2,0.1-1.9,0.2
		s-1.4,0.3-1.9,0.5l-2.1-2.6c0.9,0.1,1.7,0.2,2.5,0.2c0.7,0,1.5,0.1,2.3,0.1h34.5l2.7-3.5l3.5,4.2c0.3,0.4,0.5,0.6,0.4,0.8
		c0,0.2-0.3,0.2-0.8,0.2h-8.5v7.4h6.1l2.9-3.8l3.7,4.4c0.3,0.4,0.5,0.6,0.4,0.8c0,0.2-0.3,0.2-0.8,0.2h-12.4v8.2h4.5l3-3.8l3.8,4.5
		c0.3,0.3,0.4,0.6,0.4,0.8c0,0.2-0.3,0.3-0.8,0.3H114v6.5h12l3.3-4.4L133.5,91.6z M110,65.5h-7.9v7.4h7.9V65.5z M110,74.5h-7.9v8.2
		h7.9V74.5z M122.2,65.5H114v7.4h8.2V65.5z M122.2,74.5H114v8.2h8.2V74.5z"/>
	<path class="st1" d="M195,63.2v23.6h5.5l3.3-4l3.7,4.4c0.3,0.3,0.5,0.6,0.5,0.8s-0.3,0.4-0.8,0.4H195c0,4.6,0,7.7,0.1,9.3l0.1,4.1
		c0,0.6-0.6,1.3-1.9,2.1c-1.3,0.8-2.1,1.2-2.6,1.2c-0.4,0-0.7-0.5-0.7-1.6l0.3-6.8c0.1-3,0.2-5.7,0.2-8.3h-8.1
		c-1.7,0-3.1,0.2-4.2,0.7l-2.1-2.6c1.5,0.2,3.2,0.3,5,0.3h9.3V64.4c-6.1,13.6-14.7,23.7-25.8,30.2l-0.5-0.8c4.3-3.2,8.5-7.5,12.6-13
		c4-5.5,7.4-11.3,9.9-17.6h-15c-1.7,0-3,0.2-4.1,0.7l-2.1-2.6c1.5,0.2,3.2,0.3,5,0.3h20.1V57c0-3.2-0.1-6.6-0.2-10.1l6,2.7
		c0.6,0.2,0.9,0.5,0.9,0.7c0,0.2-0.2,0.5-0.7,1l-1.5,1.5v8.8h16.5l3.9-4.6l4.2,5c0.3,0.4,0.5,0.7,0.5,0.9s-0.3,0.3-0.9,0.3h-22.3
		c4.9,12.3,13.1,20.4,24.6,24.2v1c-2.7,0.1-4.4,0.9-5.1,2.5c-0.2,0.5-0.5,0.7-0.8,0.7c-0.6,0-2.5-1.4-5.8-4.2
		c-3.2-2.8-6-6.1-8.3-9.9c-2.3-3.8-4.3-8.6-5.9-14.3H195z"/>
	<path class="st1" d="M261,64.9h24.3l2-2.7l4.4,2.8c0.5,0.3,0.7,0.5,0.7,0.8c0,0.2-0.2,0.5-0.7,0.9l-1.5,1.2v8.3
		c0,1.5,0,2.8,0.1,3.9l0.2,2.9c0,0.9-0.6,1.6-1.8,2c-1.2,0.4-2,0.7-2.3,0.7s-0.5-0.2-0.5-0.7v-2.1h-10.3v6.4h17.9l4.1-4.8l4.5,5.5
		c0.2,0.3,0.4,0.6,0.4,0.8c0,0.2-0.3,0.3-0.8,0.3h-26c0,3.2,0,5.7,0.1,7.5c0.1,1.8,0.1,2.7,0.1,2.8c0,0.7-0.7,1.4-2,2.1
		c-1.3,0.7-2.2,1-2.5,1s-0.5-0.2-0.6-0.5c-0.1-0.3-0.1-0.9-0.1-1.8c0.3-3.1,0.4-6.8,0.4-11.1h-18.9c-1.6,0-3,0.2-4.1,0.7l-2.3-2.7
		c1.5,0.2,3.2,0.3,5,0.3h20.4v-6.4h-9.9v1.6c0,0.5-0.1,0.9-0.4,1.2s-0.8,0.6-1.7,1.1c-0.9,0.4-1.5,0.7-1.9,0.7s-0.6-0.5-0.6-1.4
		c0-0.2,0-0.9,0.1-2.3c0.1-1.4,0.1-3.5,0.1-6.4v-9.6c0-1.6-0.1-3.5-0.2-5.6L261,64.9z M283.9,55.3h8.1l3.9-4.6l4.3,5.3
		c0.3,0.3,0.4,0.5,0.4,0.7c0,0.2-0.3,0.3-0.8,0.3h-15.9c0,0.8,0,1.7,0.1,2.5l0.1,1.9c0,0.5-0.2,0.8-0.5,1.1
		c-0.3,0.2-0.9,0.5-1.8,0.8c-0.9,0.3-1.5,0.4-1.9,0.4s-0.5-0.3-0.5-1l0.2-5.6h-12c0,1.2,0,2.1,0.1,2.8l0.1,1.9
		c0,0.6-0.6,1.1-1.9,1.5c-1.3,0.4-2.1,0.6-2.4,0.6c-0.3,0-0.5-0.2-0.5-0.7s0-1.3,0.1-2.4c0.1-1.1,0.1-2.3,0.1-3.8h-9.4
		c-1.6,0-3,0.2-4.1,0.7l-2.2-2.7c1.5,0.2,3.2,0.4,5,0.4h10.7v-2.4c0-1.7-0.1-3.5-0.2-5.6l5.6,2.1c0.4,0.2,0.7,0.4,0.7,0.6
		c0,0.2-0.2,0.4-0.5,0.6l-1.2,0.9v3.9h12v-2.8c0-1.6-0.1-3.5-0.2-5.6l5.5,2.7c0.5,0.2,0.7,0.4,0.7,0.6s-0.2,0.4-0.6,0.7l-1.2,1V55.3
		z M285.9,72.9v-6.2h-24.7v6.2H285.9z M285.9,81.1v-6.5h-24.7v6.5H285.9z"/>
	<path class="st1" d="M343.5,51.9c0.6,0.4,0.9,0.8,0.9,1c0,0.2-0.3,0.4-0.9,0.6c-0.5,0.2-0.9,0.5-1.3,1c-0.4,0.5-0.8,1.4-1.2,2.5
		c-0.8,1.9-1.6,3.7-2.3,5.3s-1.5,3.1-2.3,4.6l2.3,0.8c0.4,0.1,0.6,0.3,0.7,0.6c0.1,0.3-0.1,0.6-0.6,0.9l-0.8,0.7v19.3
		c0,2.4,0,4.4,0,6.1s0.1,3.2,0.2,4.7c0,0.3,0,0.5-0.1,0.8c0,0.2-0.2,0.4-0.4,0.7c-0.2,0.2-0.5,0.4-0.9,0.7c-0.4,0.2-0.9,0.5-1.6,0.7
		c-0.8,0.3-1.3,0.3-1.5,0.1c-0.2-0.2-0.3-0.9-0.2-2c0.1-0.6,0.2-1.5,0.2-2.7c0.1-1.1,0.1-2.3,0.2-3.6c0.1-1.3,0.1-2.5,0.2-3.7
		c0-1.2,0.1-2.2,0.1-3.1V70.7c-0.9,1.4-1.8,2.8-2.8,4.2c-1,1.4-2.1,2.9-3.3,4.5l-0.7-0.4c1.3-2.4,2.6-4.7,3.7-7.1
		c1.1-2.3,2.2-4.7,3.1-7.2c0.9-2.4,1.8-5,2.6-7.6c0.8-2.6,1.6-5.4,2.3-8.3L343.5,51.9z M347.6,59.4H347c-0.9,0-1.6,0.1-2.2,0.2
		c-0.6,0.1-1.1,0.3-1.7,0.5l-2.2-2.7c0.9,0.2,1.8,0.3,2.5,0.3c0.7,0,1.5,0.1,2.3,0.1h2.1L350,55l3,2.9c0.4,0.4,0.7,0.8,0.6,0.9
		s-0.3,0.4-0.9,0.5c-0.7,0.2-1.2,0.6-1.5,1c-0.3,0.4-0.6,1-1.1,1.8l-3.9,10.2h3.7l1.6-2.4l3.2,2.9c0.6,0.5,0.6,0.9-0.2,1.3l-1.3,0.7
		c-0.7,3.9-1.4,7.2-2.1,9.9c-0.7,2.7-1.5,5-2.5,6.9c1.4,1.3,2.9,2.3,4.5,3.1c1.6,0.8,3.7,1.5,6.2,1.9c2.5,0.4,5.5,0.6,9.1,0.6
		s8.1-0.2,13.5-0.7v0.9c-1.5,0.3-2.7,0.7-3.4,1.3c-0.7,0.6-1.2,1.3-1.4,2.1c-0.1,0.4-0.2,0.6-0.3,0.7c-0.1,0.1-0.5,0.1-0.9,0.1
		c-4.4-0.2-8.2-0.4-11.3-0.7c-3.1-0.3-5.7-0.8-7.9-1.4c-2.2-0.6-4-1.3-5.5-2.2c-1.5-0.9-2.8-2-4-3.3c-1,1.7-2.2,3.2-3.6,4.4
		c-1.4,1.2-3,2.5-4.8,3.8l-0.5-0.5c1.6-1.5,3-3.1,4.2-4.7c1.2-1.6,2.2-3.4,3.1-5.3c-0.7-1.1-1.4-2.7-2.2-4.7s-1.6-4.4-2.4-7.3
		l1.1-0.5c0.8,2.4,1.6,4.4,2.3,6c0.7,1.6,1.5,2.9,2.2,3.9c0.6-2,1.2-4.3,1.8-6.7c0.5-2.4,1-5.3,1.5-8.5h-4.1c-0.2,0.9-0.6,1.5-1,1.8
		c-0.4,0.2-1.2,0.4-2.1,0.4c-0.7,0-1.1-0.2-1.2-0.5c-0.1-0.3,0-0.9,0.4-1.7L347.6,59.4z M382,64.5c0.6,0.8,0.5,1.2-0.4,1.2h-6
		c0,1.3,0,2.4,0.1,3.5s0.1,2.1,0.2,3c0,0.2,0,0.4,0,0.5s-0.1,0.3-0.2,0.5c-0.1,0.2-0.3,0.3-0.6,0.5c-0.3,0.2-0.8,0.5-1.4,0.8
		c-0.7,0.4-1.2,0.5-1.5,0.4c-0.2-0.1-0.4-0.4-0.4-0.8v-1.6h-5.3v5.6h5.9l2.7-3.2l3,3.6c0.3,0.4,0.5,0.7,0.4,0.9
		c-0.1,0.2-0.3,0.3-0.8,0.3h-11.3v5.5h7l2.9-3.6l3.4,3.9c0.6,0.8,0.5,1.2-0.4,1.2h-12.9c0,1.4,0,2.6,0,3.5c0,0.9,0.1,2,0.2,3.2
		c0,0.6,0,1.1-0.2,1.4c-0.2,0.3-0.8,0.7-1.8,1.1c-1.1,0.4-1.7,0.5-1.9,0.4c-0.2-0.2-0.3-0.8-0.2-1.8c0.1-1.1,0.2-2.3,0.2-3.6
		c0.1-1.3,0.2-2.7,0.2-4.1h-5.7c-0.9,0-1.7,0.1-2.2,0.2c-0.6,0.1-1.1,0.3-1.7,0.5l-2.1-2.5c0.9,0.1,1.8,0.1,2.5,0.2
		c0.7,0,1.5,0.1,2.4,0.1h6.9v-5.5h-3.3c-0.9,0-1.7,0-2.3,0.1s-1.2,0.2-1.7,0.4l-2-2.5c0.9,0.1,1.7,0.2,2.4,0.2
		c0.7,0,1.5,0.1,2.4,0.1h4.5v-5.6h-2.4c-1,0-1.7,0.1-2.3,0.2c-0.6,0.1-1.1,0.3-1.7,0.5l-2.2-2.6c0.9,0.1,1.8,0.2,2.5,0.2
		c0.7,0,1.5,0.1,2.4,0.1h3.6v-5.2h-6.2c-0.9,0-1.7,0.1-2.2,0.2c-0.6,0.1-1.1,0.3-1.7,0.5l-2.1-2.5c0.9,0.2,1.8,0.3,2.5,0.3
		c0.7,0,1.5,0.1,2.4,0.1h7.3v-5.4h-3c-1,0-1.7,0.1-2.3,0.2c-0.6,0.1-1.2,0.3-1.7,0.5l-2.1-2.6c0.9,0.1,1.7,0.2,2.5,0.2
		c0.7,0,1.5,0.1,2.3,0.1h4.4c0-0.6,0-1.4,0-2.1c0-0.8-0.1-1.5-0.1-2.3c0-0.8-0.1-1.5-0.1-2.2c0-0.7-0.1-1.3-0.1-1.8l5.2,2.2
		c0.9,0.3,0.9,0.6,0.1,1l-1.4,1v4.2h4.8l2-2.8l3.4,2.5c0.6,0.5,0.6,1,0,1.5l-1.2,0.9v5h0.1l2.9-3.6L382,64.5z M371.9,58.8h-5.3v5.4
		h5.3V58.8z M371.9,65.7h-5.3v5.2h5.3V65.7z"/>
	<path class="st1" d="M420,55.1h34.3l3.8-4.5l4,4.8c0.4,0.5,0.5,0.9,0.5,1.1c0,0.2-0.3,0.3-0.9,0.3h-24l3.9,1.6c0.6,0.2,1,0.5,1,0.7
		s-0.2,0.5-0.5,0.7l-0.8,0.5v2.7h9.3l2.4-2.8l3.9,3.2c0.3,0.2,0.4,0.5,0.4,0.7c0,0.2-0.2,0.4-0.5,0.6l-1.5,0.9v4.6h1.7l3.5-4.2
		l3.9,4.6c0.3,0.4,0.4,0.7,0.4,0.9s-0.3,0.3-0.8,0.3h-8.7c0,1.5,0,2.9,0.1,4.1l0.2,3c0,0.7-0.6,1.3-1.8,2c-1.2,0.6-1.9,0.9-2.2,0.9
		s-0.5-0.3-0.5-0.8v-1.7h-7.3c1.3,3.8,2.9,7,4.9,9.5c3.9-3.1,7-5.8,9.3-8.1l2.6,3.4c0.3,0.4,0.5,0.7,0.5,0.9c0,0.4-0.3,0.5-1,0.5
		s-1.4,0.1-2.1,0.4l-8.5,3.9c3.3,3.5,8.1,5.8,14.4,7l0.1,0.7c-2.3,0.6-3.8,1.9-4.3,3.6c-0.1,0.4-0.3,0.5-0.5,0.5
		c-0.4,0-2.5-1.4-6.3-4.2c-3.8-2.8-6.3-5.5-7.7-7.9c-1.4-2.5-2.4-5.9-3.1-10.2h-1v16.9c0,1.9-0.2,3.3-0.5,4.2
		c-0.3,0.9-1.2,1.8-2.6,2.7c-1.4,0.9-2.3,1.4-2.6,1.4s-0.5-0.3-0.6-1c0-1.1-0.5-2-1.5-2.7c-1-0.6-2.3-1.2-4.1-1.8l0.2-0.8
		c2.3,0.2,4,0.3,5.1,0.3c1.1,0,1.8-0.1,2.1-0.4c0.3-0.3,0.5-0.8,0.5-1.5v-9l-8.2,5.8c-1.3,0.9-2.5,1.9-3.7,2.9
		c-1.2,1.1-1.9,1.8-2.2,2.1c-0.2,0.4-0.5,0.5-0.7,0.5c-0.2,0-0.5-0.2-0.9-0.7l-3-3.6l18.7-8.9v-6.4H428c-1.7,0-3.1,0.2-4.2,0.7
		l-2.1-2.6c1.5,0.2,3.2,0.3,5,0.3h10.4v-5.8h-10.9c-1.7,0-3.1,0.2-4.1,0.7l-2.1-2.5c1.5,0.2,3.2,0.3,5,0.3h12.1v-5.5h-8.6
		c-1.7,0-3,0.2-4.1,0.6l-2.2-2.6c1.5,0.2,3.2,0.3,5,0.3h9.9c0-1.8-0.1-3.9-0.3-6.2h-17.3v14.5c0,9.3-0.7,16-2,20.1
		c-1.4,4-4.1,8.1-8.2,12.2l-1.1-0.7c2.6-3.5,4.5-7.2,5.5-11.2s1.5-9.1,1.5-15.6V58c0-2.1-0.1-4.2-0.2-6.4L420,55.1z M424.3,80.7
		c4.5,1,6.8,2.5,6.8,4.6c0,1-0.2,1.8-0.6,2.5s-0.8,1-1.3,1c-0.5,0-0.8-0.1-0.9-0.4c-0.2-0.2-0.4-0.7-0.6-1.5
		c-0.2-0.8-0.7-1.7-1.4-2.8s-1.4-1.9-2.2-2.5L424.3,80.7z M433.9,47.5c2.4,0.3,4.3,0.8,5.6,1.6c1.3,0.8,1.9,1.7,1.9,2.6
		c0,0.9-0.3,1.7-0.8,2.3c-0.5,0.6-1.1,0.9-1.9,0.9c-1.1,0-1.8-0.6-2.1-1.8c-0.4-1.9-1.4-3.5-3.1-4.7L433.9,47.5z M451.1,70.2v-5.5
		h-9.9v5.5H451.1z M451.1,77.6v-5.8h-9.9v5.8H451.1z"/>
	<path class="st1" d="M502.3,77.8c-3.2,6.9-7,12.6-11.6,17.1l-0.8-0.6c4.9-6.7,8.9-15,11.8-25h-6.2c-1.7,0-3.1,0.2-4.1,0.7l-2.2-2.7
		c1.5,0.2,3.2,0.4,5.1,0.4h8V56.8c-4,0.8-7.7,1.5-11.1,1.8l-0.2-1c9.5-2.6,16.7-5.2,21.6-7.9l3,3.9c0.3,0.4,0.4,0.7,0.4,1
		s-0.3,0.3-0.9,0.2c-0.6-0.1-1.2-0.2-1.9-0.2c-0.6,0-1.6,0.1-2.8,0.4c-1.2,0.3-2.5,0.5-4,0.8v11.8h4.7l3-3.5l3.2,3.8
		c0.3,0.4,0.5,0.7,0.5,0.9c0,0.2-0.3,0.3-0.9,0.3h-10.4v5c2.1,0.6,4,1.4,5.7,2.3c1.6,0.9,2.5,2.1,2.5,3.6c0,1-0.2,1.7-0.6,2.3
		c-0.4,0.5-0.9,0.8-1.5,0.8c-1,0-1.6-0.6-1.9-1.7c-0.3-1.1-0.7-2.2-1.4-3.2c-0.6-1-1.6-2.1-2.8-3.2v18c0,3.3,0.1,5.8,0.2,7.3
		l0.1,2.4c0,0.6-0.6,1.1-1.8,1.6c-1.2,0.5-2,0.7-2.3,0.7c-0.3,0-0.5-0.4-0.5-1.2l0.1-3.4c0-1.4,0.1-3.9,0.1-7.5V77.8z M535.4,82.3
		l3.6-0.8l2.2-4.2l4.4,3.5c0.4,0.3,0.7,0.6,0.7,0.8c0,0.2-0.3,0.4-0.9,0.5l-9.9,2.1v6c0,3.9,0,6.7,0.1,8.6c0.1,1.8,0.1,2.8,0.1,2.9
		c0,0.7-0.6,1.4-1.9,2.1s-2.1,1.1-2.5,1.1c-0.4,0-0.6-0.6-0.6-1.7l0.2-7c0.1-3.2,0.2-5.6,0.2-7.4v-3.7l-14,3
		c-1.9,0.4-3.1,0.9-3.8,1.5l-2.8-2.2c2-0.2,3.6-0.4,4.9-0.7l15.7-3.4V58.5c0-3.2-0.1-6.6-0.2-10.1l5.8,2.7c0.4,0.2,0.5,0.3,0.5,0.5
		c0,0.2-0.2,0.4-0.6,0.7l-1.1,0.8V82.3z M517.3,70.9c2.3,1.2,4.1,2.4,5.3,3.4c1.2,1.1,1.8,2.1,1.8,3.2c0,1-0.2,2-0.7,2.9
		c-0.4,0.9-1.2,1.4-2.1,1.4c-0.9,0-1.4-0.6-1.6-1.9c-0.4-3.4-1.6-6.2-3.5-8.3L517.3,70.9z M519.4,55.6c1.7,0.7,3.3,1.5,4.5,2.4
		c1.3,0.9,2.2,1.7,2.7,2.3s0.8,1.6,0.8,2.7c0,1.1-0.3,2-1,2.7c-0.7,0.6-1.4,1-2,1s-1.1-0.7-1.4-2.2c-0.6-3.1-1.9-5.8-4-8.2
		L519.4,55.6z"/>
	<path class="st1" d="M583.8,54.1c1.8-1.2,3.8-2.9,5.8-5.2l2.7,2.7c0.3,0.3,0.5,0.6,0.5,0.8c0,0.2-0.1,0.3-0.3,0.4
		c-0.2,0.1-0.5,0.1-0.7,0.1c-0.3,0-0.4,0-0.5,0c-0.4,0-1.1,0.2-2,0.5c-0.9,0.3-2.6,1.1-5.3,2.4l0.3,4.2h3.5l2.4-2.8l2.8,3.5
		c0.3,0.3,0.4,0.6,0.4,0.8c0,0.2-0.3,0.3-0.8,0.3h-8.2l0.3,5.1h4.3l2.2-2.5l2.7,3.2c0.3,0.3,0.4,0.6,0.4,0.8c0,0.2-0.3,0.3-0.8,0.3
		h-8.6l0.4,5.3h28.3l0.6-5.6h-1.2c-1.7,0-3,0.2-4.1,0.7l-2.2-2.7c1.5,0.2,3.2,0.3,5,0.3h2.6l0.6-5.2h-1.9c-1.7,0-3,0.2-4.1,0.7
		l-2.2-2.7c1.5,0.2,3.2,0.4,5,0.4h3.3l0.6-5.6h-3.2c-1.1,0-2.3,0.2-3.4,0.7l-2.2-2.7c1.5,0.2,2.9,0.3,4.3,0.3h4.1l2.1-2.5l3.3,2.7
		c0.4,0.4,0.7,0.6,0.7,0.8c0,0.2-0.2,0.4-0.6,0.5l-1.3,0.7l-2.1,19.3h3.8l2.2-2.8l3.5,3.6c0.5,0.5,0.7,0.9,0.7,1.1
		c0,0.2-0.1,0.3-0.3,0.4c-0.2,0-0.4,0-0.6,0c-0.7,0-1.8,0.5-3.4,1.5c-1.5,1-2.9,2.3-4.2,3.7l-0.8-0.5l2.9-5.4h-41.8
		c0.2,2.4-0.2,4.2-1,5.4c-0.8,1.2-1.9,1.8-3,1.8c-0.6,0-1.1-0.2-1.5-0.5c-0.4-0.3-0.6-0.8-0.6-1.4s0.4-1.3,1.3-2.1
		c1.8-1.6,2.9-4,3.2-7.2h1.1c0.1,0.5,0.3,1.3,0.4,2.4h2.7l-1.3-15.8c-0.1-1.2-0.4-3.2-0.7-6L583.8,54.1z M601.9,89.7v7.9
		c0,2.1-0.1,3.5-0.4,4.2c-0.2,0.7-1,1.5-2.3,2.3c-1.3,0.8-2.1,1.2-2.5,1.2c-0.4,0-0.6-0.3-0.6-1c0-0.7-0.5-1.4-1.5-2.1
		s-2.4-1.3-4.3-1.8l0.1-1.3c2.4,0.4,4,0.5,4.9,0.5c0.9,0,1.5-0.1,1.7-0.4c0.3-0.3,0.4-0.7,0.4-1.4v-8.3h-17.8
		c-1.7,0-3.1,0.2-4.1,0.7l-2.1-2.7c1.5,0.2,3.2,0.4,5,0.4h19c-0.1-1.8-0.2-3.2-0.2-4.1l3.5,1.2l4.4-3.6h-14c-1.7,0-3.1,0.2-4.1,0.7
		l-2.1-2.7c1.5,0.2,3.2,0.4,5,0.4H606l2.9-2.2l3.3,3.2c0.3,0.4,0.5,0.7,0.5,0.9c0,0.2-0.1,0.4-0.2,0.5c-0.2,0.1-0.5,0.1-1.1,0.1
		c-1.5,0-4.3,1.2-8.6,3.5c0.4,0.2,0.6,0.4,0.6,0.6c0,0.2-0.2,0.4-0.6,0.5l-0.8,0.3v0.8h16.3l3.6-4l3.9,4.2c0.3,0.4,0.5,0.7,0.5,1
		c0,0.3-0.3,0.4-0.8,0.4H601.9z M599.6,65.6c1.1-1.4,2-2.7,2.7-4l2.9,2.6c0.3,0.3,0.5,0.5,0.5,0.7c0,0.2-0.3,0.2-0.9,0.2
		s-1.6,0.7-2.9,2c1.2,0.9,1.9,1.7,2.2,2.2s0.4,1.1,0.4,1.7c0,1.3-0.4,1.9-1.1,1.9c-0.7,0-1.4-0.6-2.1-1.8c-0.2-0.5-0.7-1.2-1.4-2.1
		c-2.3,1.9-4.5,3.3-6.5,4.4l-0.8-0.8c2.1-1.7,4-3.5,5.7-5.4c-1.3-1.1-2.7-2.2-4.2-3.2l0.5-0.7C596.2,63.8,597.9,64.6,599.6,65.6z
		 M602.1,55.2c1.2,0.9,1.9,1.7,2.2,2.3c0.2,0.6,0.3,1.2,0.3,1.8s-0.1,1.1-0.3,1.5c-0.2,0.4-0.5,0.6-0.8,0.6c-0.6,0-1.1-0.5-1.6-1.6
		c-0.5-1.1-1.1-2-1.7-2.7c-1.8,1.6-3.6,3-5.4,4.4l-0.6-0.7c1.7-1.8,3.2-3.6,4.5-5.3c-1.1-1.1-2.7-2.3-4.8-3.7l0.5-0.6
		c1.9,0.7,3.8,1.6,5.5,2.6c1-1.5,1.9-3.1,2.8-4.8l3.1,2.3c0.3,0.2,0.5,0.5,0.5,0.8c0,0.3-0.4,0.4-1.1,0.4
		C604.7,52.4,603.7,53.3,602.1,55.2z"/>
</g>
<g class="st0">
	<path class="st1" d="M253.3,7.4l0.7-1l1.2,1.1c0.1,0.1,0.2,0.2,0.2,0.2s-0.1,0.2-0.3,0.2s-0.3,0.2-0.4,0.3c-0.1,0.1-0.2,0.5-0.3,1
		c-0.4,1.9-1.1,3.7-2.1,5.3s-2.3,3.2-3.8,4.4l-0.2-0.3c2.4-2.7,4.1-6.3,5-10.9h-2.3c-0.6,0-1.1,0.1-1.4,0.2l-0.8-0.9
		c0.5,0.1,1.1,0.1,1.7,0.1H253.3z M258.8,8.3h0.7l0.9-1.1l1,1.2c0.1,0.1,0.1,0.2,0.1,0.3c0,0.1-0.1,0.1-0.3,0.1h-2.5v2.5h0.8
		l0.9-1.1l1,1.2c0.1,0.1,0.1,0.2,0.1,0.3c0,0.1-0.1,0.1-0.3,0.1h-2.6v2.7h1.6l1-1.3l1.2,1.4c0.1,0.1,0.1,0.2,0.1,0.3
		c0,0.1-0.1,0.1-0.3,0.1h-3.7v2.5c0,0.7,0,1.3-0.1,1.6c-0.1,0.3-0.3,0.7-0.8,1c-0.4,0.4-0.7,0.5-0.8,0.5s-0.2-0.1-0.3-0.4
		c-0.1-0.4-0.4-0.7-0.9-0.9c-0.4-0.2-1.1-0.4-1.9-0.6l0-0.3c1.1,0.1,1.8,0.1,2.3,0.1s0.7-0.1,0.9-0.2c0.1-0.1,0.2-0.4,0.2-0.8V15h-2
		c-0.6,0-1.1,0.1-1.4,0.2l-0.8-0.9c0.5,0.1,1.1,0.1,1.7,0.1h2.5v-2.7h-0.8c-0.6,0-1.1,0.1-1.4,0.2l-0.8-0.8c0.5,0.1,1.1,0.1,1.8,0.1
		h1.3V8.8c-0.8,0-1.4,0.1-1.8,0.2l-0.8-0.9c0.5,0.1,1.1,0.1,1.7,0.1h0.8v-1c0-0.9,0-1.9-0.1-2.9l1.4,0.7l3.7-2h-9
		c-0.6,0-1.1,0.1-1.4,0.2l-0.8-0.9c0.5,0.1,1.1,0.1,1.8,0.1h9.4l1.1-0.9l1.4,1.4c0.2,0.2,0.3,0.3,0.3,0.4s-0.1,0.1-0.3,0.1l-0.5,0
		c-0.3,0-0.8,0.1-1.5,0.4c-0.6,0.2-2,0.8-4.2,1.8V8.3z M262.8,9.4c1.1-0.9,2.1-2,3-3.3l1.2,1.2c0.2,0.2,0.2,0.3,0.2,0.4
		s-0.2,0.1-0.5,0.2c-0.3,0-0.7,0.2-1.2,0.4c-0.5,0.3-1.4,0.8-2.6,1.7c0.5,1.6,1.1,2.9,2,4c0.9,1.1,2.1,2.2,3.6,3.1l-0.1,0.3
		c-0.9,0-1.5,0.3-1.8,0.7c-0.1,0.1-0.2,0.2-0.2,0.2c-0.2,0-0.7-0.7-1.7-2c-0.9-1.3-1.6-2.7-2.2-4.3s-0.9-3.4-1-5.5l0.5-0.1
		C262.3,7.5,262.5,8.5,262.8,9.4z"/>
	<path class="st1" d="M279.7,8.4c-0.8,1.2-1.6,2.3-2.5,3.3l-0.3-0.2c2.2-3.6,3.8-7,4.8-10.2l1.7,0.9c0.2,0.1,0.3,0.2,0.3,0.3
		c0,0.1-0.1,0.2-0.3,0.3c-0.4,0.2-0.8,0.5-1.1,1.1c-0.3,0.6-0.7,1.5-1.4,2.6l0.6,0.3c0.1,0.1,0.2,0.2,0.2,0.2s-0.1,0.2-0.3,0.3
		l-0.3,0.3v8c0,1.3,0,2.3,0,2.9c0,0.6,0,1,0,1c0,0.3-0.2,0.5-0.6,0.8s-0.7,0.3-0.8,0.3c-0.1,0-0.2-0.2-0.2-0.5l0.1-2.3
		c0-0.9,0.1-1.8,0.1-2.7V8.4z M291.3,13.1l1.4,0.6c0.2,0.1,0.3,0.2,0.3,0.3c0,0.1-0.1,0.2-0.3,0.2l-0.3,0.2v0.9h1.7l1-1.2l1.1,1.3
		c0.1,0.1,0.1,0.2,0.1,0.3s-0.1,0.1-0.3,0.1h-3.7v2.3c0,0.7-0.1,1.2-0.2,1.5c-0.1,0.3-0.4,0.6-0.9,0.9c-0.5,0.3-0.8,0.4-1,0.4
		c-0.2,0-0.3-0.1-0.3-0.3c0-0.4-0.2-0.7-0.4-0.9c-0.3-0.2-0.8-0.4-1.6-0.6l0-0.4c1,0.2,1.6,0.3,1.9,0.3c0.3,0,0.5,0,0.7-0.1
		c0.1-0.1,0.2-0.3,0.2-0.7v-2.4h-7.6c-0.6,0-1.1,0.1-1.4,0.2l-0.8-0.9c0.5,0.1,1.1,0.1,1.7,0.1h8.1c0-0.6,0-1.3-0.1-2.1l-2.5,0.2
		c-1.3,0.1-2.5,0.3-3.4,0.5c-1,0.2-1.5,0.3-1.7,0.4c-0.1,0.1-0.3,0.1-0.4,0.1s-0.2-0.1-0.3-0.3l-0.7-1.2l5.9-0.2v-1.9H285
		c0,0.3,0,0.5-0.1,0.6s-0.2,0.2-0.6,0.4s-0.5,0.2-0.6,0.2s-0.2-0.1-0.2-0.3l0.1-1c0-0.4,0-0.9,0-1.7V7.2c0-0.5,0-1.1-0.1-1.9
		l1.5,0.9h2.8V4.5h-3.1c-0.6,0-1.1,0.1-1.4,0.2l-0.8-0.9c0.5,0.1,1.1,0.1,1.7,0.1h3.6c0-1.2-0.1-2-0.1-2.6l2,0.9
		c0.2,0.1,0.3,0.2,0.3,0.3s-0.1,0.2-0.3,0.3l-0.6,0.3V4h4.2l1.2-1.4l1.3,1.5c0.1,0.1,0.2,0.2,0.2,0.3s-0.1,0.1-0.3,0.1h-6.6v1.6h2.9
		l0.7-0.8l1.2,0.9c0.2,0.1,0.3,0.2,0.3,0.3s-0.1,0.1-0.2,0.2L293.7,7v1.2c0,0.4,0,0.8,0,1.2l0.1,1.1c0,0.2,0,0.3-0.1,0.4
		c-0.1,0.1-0.3,0.2-0.6,0.3c-0.3,0.1-0.5,0.2-0.7,0.2s-0.2-0.2-0.1-0.6h-3.1v1.8l3.4-0.1c-0.3-0.2-0.7-0.5-1.3-0.8l0.1-0.3
		c1.5,0.3,2.4,0.6,2.8,0.8c0.4,0.3,0.6,0.6,0.6,1c0,0.2-0.1,0.4-0.2,0.5s-0.2,0.2-0.4,0.2c-0.2,0-0.4-0.1-0.5-0.2
		c-0.2-0.4-0.4-0.7-0.7-0.9L291.3,13.1z M285.1,16c0.7,0.3,1.2,0.6,1.6,1c0.4,0.3,0.6,0.6,0.6,0.8c0,0.3-0.1,0.6-0.3,0.9
		c-0.2,0.3-0.4,0.4-0.5,0.4c-0.3,0-0.5-0.2-0.5-0.6c-0.1-0.8-0.5-1.5-1.1-2.2L285.1,16z M287.8,8.2V6.7H285v1.5H287.8z M287.8,10.3
		V8.8H285v1.5H287.8z M289.1,6.7v1.5h3.1V6.7H289.1z M289.1,8.8v1.5h3.1V8.8H289.1z"/>
</g>
<g class="st0">
	<path class="st1" d="M337.9,6.7C337,7.5,336.1,8.3,335,9l-0.2-0.3c1.2-1.1,2.4-2.5,3.6-4s2-2.8,2.5-3.9l1.6,0.8
		c0.2,0.1,0.3,0.2,0.3,0.3c0,0.1-0.1,0.2-0.3,0.2s-0.4,0.2-0.7,0.5c0.9,0.1,1.9,0.2,2.8,0.5c1,0.3,1.6,0.5,1.8,0.8
		c0.2,0.3,0.3,0.6,0.3,0.8c0,0.3,0,0.5-0.1,0.6c-0.1,0.1-0.2,0.2-0.3,0.2s-0.2,0-0.3-0.1c-0.1-0.1-0.3-0.2-0.6-0.5
		c-1-1-2.3-1.7-3.9-2.1c-1.3,1.6-2.4,2.8-3.3,3.6l1.5,0.7h4.6l0.6-0.8l1.3,0.9c0.1,0.1,0.1,0.1,0.1,0.2c0,0.1,0,0.1-0.1,0.2
		l-0.5,0.3v1.9c0,0.5,0,1,0,1.4l0.1,1c0,0.2-0.2,0.4-0.5,0.6s-0.6,0.3-0.7,0.3c-0.1,0-0.2-0.1-0.2-0.3v-0.4h-5
		c-0.3,2.7-1.6,4.9-4,6.8l-0.3-0.2c0.9-1,1.6-2.1,2.1-3.2c0.5-1.1,0.8-2.2,0.9-3.4c0.1-1.1,0.2-2.2,0.2-3.2
		C338,8.3,338,7.5,337.9,6.7z M344.2,12V10h-4.8l-0.1,1.9H344.2z M344.2,9.5V7.8h-4.7c0,0.8-0.1,1.4-0.1,1.7H344.2z M340.7,14.2h3.8
		l0.4-0.6l1.4,1c0.1,0.1,0.2,0.2,0.2,0.2c0,0.1-0.1,0.1-0.2,0.2l-0.5,0.3v1.1c0,0.6,0,1,0.1,1.4s0.1,0.5,0.1,0.6
		c0,0.2-0.2,0.4-0.6,0.5c-0.4,0.1-0.6,0.2-0.7,0.2c-0.1,0-0.1-0.1-0.1-0.3v-0.9h-3.8v0.5c0,0.3,0,0.4-0.1,0.5
		c-0.1,0.1-0.2,0.2-0.5,0.3c-0.3,0.1-0.5,0.1-0.6,0.1s-0.2-0.2-0.2-0.6c0.1-0.7,0.1-1.2,0.1-1.6v-1.7c0-0.7,0-1.3-0.1-1.8
		L340.7,14.2z M340.7,4.4c1.5,0.4,2.2,0.9,2.2,1.5c0,0.3-0.1,0.6-0.2,0.8c-0.1,0.2-0.3,0.3-0.5,0.3c-0.2,0-0.3,0-0.3-0.1
		c0-0.1-0.1-0.2-0.2-0.4c-0.3-0.8-0.6-1.4-1.1-1.7L340.7,4.4z M344.6,17.4v-2.6h-3.8v2.6H344.6z M349.6,4.8l-0.4,0.3v6.6
		c0,1,0,1.6,0,2c0,0.4,0,0.6,0,0.7c0,0.2-0.2,0.3-0.6,0.5c-0.4,0.2-0.6,0.3-0.7,0.3c-0.1,0-0.1-0.1-0.1-0.4l0.1-1.1c0-0.4,0-1.1,0-2
		V5.8c0-0.2,0-0.9-0.1-2l1.7,0.5c0.1,0.1,0.2,0.1,0.2,0.2C349.8,4.6,349.7,4.7,349.6,4.8z M353.2,2.1l-0.4,0.3v15.3
		c0,0.6-0.1,1-0.2,1.3c-0.1,0.2-0.4,0.5-1,0.8c-0.5,0.3-0.9,0.4-1,0.4c-0.1,0-0.2-0.1-0.3-0.3c-0.1-0.5-0.4-0.9-0.8-1.1
		s-0.9-0.4-1.5-0.5l0-0.4c1.2,0.2,2,0.3,2.4,0.3s0.6,0,0.8-0.1s0.2-0.2,0.2-0.5V4.4c0-1.4,0-2.6-0.1-3.5l1.8,0.6
		c0.2,0.1,0.3,0.2,0.3,0.3S353.4,2,353.2,2.1z"/>
	<path class="st1" d="M368,11.9V9.3h-2.5c-0.2,0-0.5,0-0.7,0.1c-0.3,0-0.5,0.1-0.7,0.2l-0.8-0.9c0.3,0,0.6,0.1,0.9,0.1s0.5,0,0.8,0
		h4.5c0.2-0.5,0.3-0.9,0.5-1.2c0.1-0.3,0.2-0.7,0.3-1s0.1-0.6,0.2-0.9c0-0.3,0.1-0.6,0.1-1l1.6,0.8c0.2,0.1,0.3,0.2,0.3,0.2
		c0,0.1-0.1,0.2-0.3,0.3C372.2,5.9,372,6,372,6.1s-0.2,0.2-0.3,0.4c-0.1,0.2-0.3,0.5-0.5,0.8c-0.2,0.3-0.5,0.8-0.9,1.4h1.5l1.1-1.2
		l1.2,1.5c0.1,0.1,0.2,0.2,0.1,0.3c0,0-0.1,0.1-0.3,0.1h-4.3v2.6h1.8l1-1.2l1.2,1.4c0.1,0.1,0.2,0.2,0.1,0.3c0,0.1-0.1,0.1-0.3,0.1
		h-3.7v1.2c0.9,0.2,1.6,0.5,2.1,0.8s0.8,0.6,0.9,1c0.1,0.3,0.1,0.6,0,0.8c-0.1,0.2-0.2,0.4-0.4,0.4c-0.2,0-0.3,0-0.5-0.1
		c-0.1-0.1-0.3-0.3-0.5-0.7c-0.2-0.3-0.4-0.7-0.7-1c-0.3-0.3-0.6-0.6-1-0.8V16c0,0.2,0,0.4,0,0.6c0,0.3,0,0.5,0,0.8
		c0,0.3,0,0.5,0,0.7c0,0.2,0,0.4,0,0.5c0,0.2,0,0.3-0.1,0.5c-0.1,0.1-0.3,0.3-0.7,0.5c-0.2,0.1-0.4,0.2-0.5,0.3
		c-0.1,0.1-0.2,0.1-0.3,0c-0.1,0-0.1-0.1-0.1-0.3c0-0.1,0-0.3,0-0.6c0-0.2,0.1-0.4,0.1-0.7c0-0.3,0-0.6,0.1-0.9c0-0.3,0-0.6,0-0.8
		c0-0.3,0-0.4,0-0.6v-2.8c-0.5,1-1.1,2-1.9,2.9c-0.8,0.9-1.7,1.7-2.8,2.5l-0.2-0.3c0.9-0.9,1.7-1.8,2.3-2.7s1.1-2,1.6-3h-0.8
		c-0.2,0-0.4,0-0.7,0.1c-0.3,0-0.5,0.1-0.7,0.2l-0.8-0.9c0.3,0,0.6,0.1,0.9,0.1c0.3,0,0.5,0,0.9,0H368z M373.7,4.1
		c0.2,0.2,0.1,0.4-0.2,0.4h-7.2c-0.2,0-0.5,0-0.7,0.1s-0.5,0.1-0.7,0.2l-0.8-0.9c0.3,0,0.6,0.1,0.9,0.1c0.3,0,0.5,0,0.8,0h5.6
		l1.1-1.2L373.7,4.1z M368.4,6.8c0,0.2,0,0.3-0.1,0.5s-0.2,0.3-0.3,0.5c-0.1,0.1-0.2,0.2-0.4,0.3s-0.3,0.1-0.4,0.1
		c-0.2,0-0.3-0.1-0.4-0.2c-0.1-0.1-0.1-0.3-0.1-0.5c0-0.5,0-1,0-1.3c-0.1-0.3-0.2-0.7-0.5-1.1l0.2-0.2c0.7,0.4,1.2,0.8,1.5,1.1
		C368.2,6.3,368.4,6.6,368.4,6.8z M370.2,2.4c0,0.2,0,0.3-0.1,0.5s-0.2,0.3-0.3,0.4s-0.2,0.2-0.4,0.3c-0.1,0.1-0.3,0.1-0.4,0.1
		c-0.3,0-0.5-0.2-0.6-0.7c0-0.2-0.1-0.4-0.1-0.6s-0.1-0.3-0.1-0.5c-0.1-0.1-0.1-0.3-0.2-0.4c-0.1-0.1-0.2-0.3-0.3-0.5l0.2-0.3
		c0.8,0.3,1.4,0.5,1.8,0.8C370,1.8,370.2,2,370.2,2.4z M382.7,8.7c0.1,0.1,0.2,0.2,0.1,0.3c0,0-0.1,0.1-0.3,0.1h-2.8v6.4
		c0,0.8,0,1.6,0,2.2c0,0.6,0,1.1,0.1,1.7c0,0.2,0,0.3-0.1,0.4c-0.1,0.1-0.3,0.2-0.7,0.4c-0.4,0.2-0.6,0.2-0.7,0.2s-0.2-0.3-0.1-0.7
		c0-0.2,0-0.5,0.1-0.9c0-0.4,0-0.8,0.1-1.3c0-0.5,0-0.9,0-1.3c0-0.4,0-0.8,0-1.1V9H376c0,1.7-0.1,3.2-0.3,4.3
		c-0.2,1.2-0.4,2.1-0.8,3c-0.4,0.8-0.9,1.5-1.6,2.1c-0.7,0.6-1.6,1.2-2.6,1.8l-0.2-0.3c0.8-0.7,1.5-1.3,2-1.8
		c0.5-0.5,0.9-1.1,1.3-1.7c0.3-0.6,0.5-1.3,0.7-2c0.1-0.8,0.2-1.7,0.3-2.7c0.1-1.6,0.1-3.1,0.1-4.6s0-3.1-0.1-4.7l1.7,1.3
		c0.4-0.2,0.9-0.3,1.2-0.5c0.4-0.1,0.7-0.3,1.1-0.5s0.7-0.3,1.1-0.5c0.4-0.2,0.7-0.4,1.1-0.6l1.3,1.6c0.2,0.2,0.2,0.3,0.1,0.4
		c-0.1,0.1-0.2,0.1-0.3,0c-0.4-0.2-0.8-0.2-1.3-0.1l-4.5,0.7c0,0.7,0,1.4,0,2.2c0,0.8,0,1.5,0,2.1h4.1l1.2-1.4L382.7,8.7z"/>
</g>
<g>
	
		<rect x="316.4" y="-4.4" transform="matrix(0.7071 -0.7071 0.7071 0.7071 84.7186 227.2078)" class="st1" width="0.5" height="31.6"/>
</g>
<g>
	
		<rect x="300.8" y="11.1" transform="matrix(0.7071 -0.7071 0.7071 0.7071 84.7186 227.2078)" class="st1" width="31.6" height="0.5"/>
</g>
</svg>
